<?xml version="1.0" encoding="utf-8"?>
<svg version="1.1" xmlns="http://www.w3.org/2000/svg" xmlns:xlink="http://www.w3.org/1999/xlink" x="0px" y="0px" width="250px"
	 height="60px" viewBox="0 0 250 60" enable-background="new 0 0 250 60" xml:space="preserve">
<g id="Layer_2">
	<g>
		<path fill="#FFFFFF" d="M34.361,18.385h-9.203v25.123H22.95V18.385h-9.519v-1.893h20.93V18.385z"/>
		<path fill="#FFFFFF" d="M58,32.208c0,3.488-0.956,6.309-2.867,8.461s-4.475,3.229-7.691,3.229c-3.167,0-5.693-1.076-7.58-3.229
			c-1.887-2.152-2.83-4.973-2.83-8.461v-4.397c0-3.476,0.94-6.296,2.82-8.461c1.88-2.165,4.403-3.247,7.57-3.247
			c3.216,0,5.783,1.083,7.7,3.247C57.041,21.515,58,24.335,58,27.811V32.208z M55.792,27.773c0-2.919-0.739-5.27-2.217-7.051
			c-1.479-1.781-3.529-2.672-6.151-2.672c-2.573,0-4.577,0.891-6.012,2.672c-1.435,1.781-2.152,4.132-2.152,7.051v4.435
			c0,2.944,0.72,5.307,2.162,7.088c1.441,1.781,3.448,2.672,6.021,2.672c2.635,0,4.685-0.888,6.151-2.663
			c1.466-1.774,2.199-4.141,2.199-7.097V27.773z"/>
		<path fill="#FFFFFF" d="M63.751,43.508V16.492h8.238c3.303,0,6.033,1.101,8.192,3.303c2.158,2.202,3.238,5.028,3.238,8.479v3.47
			c0,3.451-1.08,6.275-3.238,8.471c-2.159,2.195-4.889,3.293-8.192,3.293H63.751z M65.978,18.385v23.249h6.012
			c2.672,0,4.874-0.934,6.605-2.802c1.731-1.867,2.598-4.23,2.598-7.088v-3.525c0-2.82-0.869-5.164-2.607-7.032
			c-1.738-1.868-3.937-2.802-6.596-2.802H65.978z"/>
		<path fill="#FFFFFF" d="M109.136,32.208c0,3.488-0.956,6.309-2.867,8.461s-4.475,3.229-7.691,3.229
			c-3.167,0-5.693-1.076-7.58-3.229c-1.887-2.152-2.83-4.973-2.83-8.461v-4.397c0-3.476,0.94-6.296,2.82-8.461
			c1.88-2.165,4.403-3.247,7.57-3.247c3.216,0,5.783,1.083,7.7,3.247c1.917,2.165,2.876,4.985,2.876,8.461V32.208z M106.928,27.773
			c0-2.919-0.739-5.27-2.217-7.051c-1.479-1.781-3.529-2.672-6.151-2.672c-2.573,0-4.577,0.891-6.012,2.672
			c-1.435,1.781-2.152,4.132-2.152,7.051v4.435c0,2.944,0.72,5.307,2.162,7.088c1.441,1.781,3.448,2.672,6.021,2.672
			c2.635,0,4.685-0.888,6.151-2.663c1.466-1.774,2.199-4.141,2.199-7.097V27.773z"/>
		<path fill="#FFFFFF" d="M139.955,43.508h-16.439v-1.707l8.888-10.372c1.582-1.868,2.678-3.398,3.283-4.592
			c0.606-1.193,0.91-2.372,0.91-3.535c0-1.645-0.443-2.941-1.327-3.887c-0.885-0.946-2.192-1.419-3.925-1.419
			c-1.93,0-3.414,0.572-4.453,1.716c-1.039,1.145-1.558,2.607-1.558,4.388h-2.078l-0.037-0.111
			c-0.062-2.202,0.649-4.066,2.134-5.594c1.485-1.527,3.482-2.292,5.993-2.292c2.313,0,4.139,0.649,5.475,1.948
			s2.004,3.056,2.004,5.27c0,1.46-0.439,2.919-1.318,4.379c-0.878,1.46-2.17,3.229-3.877,5.307l-7.311,8.535l0.037,0.093h13.6
			V43.508z"/>
		<path fill="#FFFFFF" d="M160.662,33.971c0,3.08-0.745,5.505-2.235,7.273c-1.491,1.77-3.534,2.653-6.132,2.653
			s-4.652-0.888-6.16-2.663c-1.51-1.774-2.264-4.195-2.264-7.264v-7.941c0-3.055,0.748-5.474,2.244-7.255
			c1.497-1.781,3.545-2.672,6.143-2.672s4.647,0.891,6.15,2.672s2.254,4.2,2.254,7.255V33.971z M158.436,25.677
			c0-2.362-0.535-4.233-1.604-5.613c-1.07-1.379-2.595-2.069-4.573-2.069c-1.98,0-3.504,0.693-4.574,2.078
			c-1.07,1.386-1.605,3.253-1.605,5.604v8.628c0,2.338,0.541,4.209,1.624,5.613c1.082,1.404,2.612,2.105,4.593,2.105
			c1.967,0,3.481-0.699,4.545-2.097c1.064-1.397,1.596-3.271,1.596-5.622V25.677z"/>
		<path fill="#FFFFFF" d="M182.074,43.508h-16.439v-1.707l8.889-10.372c1.582-1.868,2.678-3.398,3.283-4.592
			c0.606-1.193,0.91-2.372,0.91-3.535c0-1.645-0.443-2.941-1.327-3.887c-0.885-0.946-2.192-1.419-3.925-1.419
			c-1.93,0-3.414,0.572-4.453,1.716c-1.039,1.145-1.559,2.607-1.559,4.388h-2.078l-0.037-0.111c-0.062-2.202,0.65-4.066,2.135-5.594
			c1.484-1.527,3.481-2.292,5.992-2.292c2.313,0,4.139,0.649,5.475,1.948s2.004,3.056,2.004,5.27c0,1.46-0.439,2.919-1.318,4.379
			c-0.878,1.46-2.17,3.229-3.877,5.307l-7.311,8.535l0.037,0.093h13.6V43.508z"/>
		<path fill="#FFFFFF" d="M187.326,31.354l1.484-14.862h13.137v2.06h-11.227l-1.002,9.723c0.681-0.606,1.432-1.082,2.255-1.429
			c0.822-0.346,1.927-0.538,3.312-0.575c2.313-0.037,4.172,0.724,5.576,2.282s2.105,3.674,2.105,6.346
			c0,2.734-0.686,4.917-2.059,6.55s-3.434,2.449-6.18,2.449c-2.227,0-4.082-0.622-5.566-1.864c-1.484-1.244-2.195-3.084-2.133-5.521
			l0.037-0.111h2.004c0,1.818,0.513,3.21,1.539,4.175c1.027,0.965,2.4,1.447,4.119,1.447c2.017,0,3.522-0.605,4.519-1.818
			c0.995-1.212,1.493-2.969,1.493-5.27c0-2.016-0.498-3.618-1.493-4.806c-0.996-1.188-2.397-1.781-4.202-1.781
			c-1.721,0-3.034,0.275-3.943,0.826c-0.909,0.551-1.568,1.382-1.977,2.496L187.326,31.354z"/>
		<path fill="#3BC4A0" d="M231.746,35.975h-11.857l-2.727,7.533h-2.301l9.926-27.016h2.098l9.852,27.016h-2.301L231.746,35.975z
			 M220.594,33.989h10.428L225.9,19.665h-0.111L220.594,33.989z"/>
	</g>
</g>
</svg>
